<svg xmlns="http://www.w3.org/2000/svg" viewBox="0 0 256 256">
  <defs>
    <radialGradient id="body" cx="36%" cy="28%" r="76%">
      <stop offset="0" stop-color="#d1d5db"/>
      <stop offset=".45" stop-color="#6b7280"/>
      <stop offset="1" stop-color="#1f2937"/>
    </radialGradient>
  </defs>
  <path d="M128 18c48 0 92 25 108 73 16 50-10 108-60 133-43 22-100 14-134-23C5 161 11 97 47 57c22-25 48-39 81-39z" fill="url(#body)"/>
  <circle cx="86" cy="83" r="24" fill="#111827" opacity=".16"/>
  <circle cx="155" cy="134" r="22" fill="#111827" opacity=".18"/>
  <circle cx="111" cy="177" r="14" fill="#f8fafc" opacity=".12"/>
  <path d="M128 18c48 0 92 25 108 73 16 50-10 108-60 133-43 22-100 14-134-23C5 161 11 97 47 57c22-25 48-39 81-39z" fill="none" stroke="#ff6b2e" stroke-width="12"/>
</svg>
